<svg width="57" height="48" viewBox="0 0 57 48" fill="none" xmlns="http://www.w3.org/2000/svg">
    <rect width="48" height="48" fill="#4889F1"/>
    <path d="M11.6396 26.7363C11.165 26.9824 10.5747 27.1055 9.86865 27.1055C8.95459 27.1055 8.22217 26.8169 7.67139 26.2397C7.12061 25.6626 6.84521 24.9053 6.84521 23.9678C6.84521 22.96 7.1543 22.1455 7.77246 21.5244C8.39355 20.9033 9.17725 20.5928 10.1235 20.5928C10.7329 20.5928 11.2383 20.6792 11.6396 20.8521V21.8892C11.2148 21.6372 10.7461 21.5112 10.2334 21.5112C9.55078 21.5112 8.99707 21.7295 8.57227 22.166C8.15039 22.6025 7.93945 23.1855 7.93945 23.915C7.93945 24.6094 8.13721 25.1631 8.53271 25.5762C8.92822 25.9863 9.44824 26.1914 10.0928 26.1914C10.6875 26.1914 11.2031 26.0508 11.6396 25.7695V26.7363ZM20.0117 27H18.8647L18.2979 25.396H15.8193L15.2744 27H14.1318L16.4917 20.6982H17.6694L20.0117 27ZM18.021 24.5435L17.1465 22.0298C17.1201 21.9478 17.0923 21.8159 17.063 21.6343H17.0454C17.019 21.8013 16.9897 21.9331 16.9575 22.0298L16.0918 24.5435H18.021ZM26.2832 21.5859H24.4727V27H23.4268V21.5859H21.6206V20.6982H26.2832V21.5859ZM33.2314 26.7363C32.7568 26.9824 32.1665 27.1055 31.4604 27.1055C30.5464 27.1055 29.814 26.8169 29.2632 26.2397C28.7124 25.6626 28.437 24.9053 28.437 23.9678C28.437 22.96 28.7461 22.1455 29.3643 21.5244C29.9854 20.9033 30.769 20.5928 31.7153 20.5928C32.3247 20.5928 32.8301 20.6792 33.2314 20.8521V21.8892C32.8066 21.6372 32.3379 21.5112 31.8252 21.5112C31.1426 21.5112 30.5889 21.7295 30.1641 22.166C29.7422 22.6025 29.5312 23.1855 29.5312 23.915C29.5312 24.6094 29.729 25.1631 30.1245 25.5762C30.52 25.9863 31.04 26.1914 31.6846 26.1914C32.2793 26.1914 32.7949 26.0508 33.2314 25.7695V26.7363ZM41.4893 27H40.439V24.2666H37.4727V27H36.4268V20.6982H37.4727V23.3481H40.439V20.6982H41.4893V27ZM48.5825 27H45.0449V20.6982H48.4419V21.5859H46.0908V23.3701H48.2573V24.2534H46.0908V26.1167H48.5825V27Z" fill="white"/>
    <path d="M56.5723 27H55.3506L54.3442 25.3125C54.2534 25.1572 54.1641 25.0254 54.0762 24.917C53.9912 24.8057 53.9033 24.7148 53.8125 24.6445C53.7246 24.5742 53.6279 24.5229 53.5225 24.4907C53.417 24.4585 53.2983 24.4424 53.1665 24.4424H52.7446V27H51.7031V20.6982H53.7773C54.0732 20.6982 54.3457 20.7334 54.5947 20.8037C54.8438 20.874 55.0605 20.981 55.2451 21.1245C55.4297 21.2651 55.5732 21.4424 55.6758 21.6562C55.7812 21.8672 55.834 22.1147 55.834 22.3989C55.834 22.6216 55.8003 22.8267 55.7329 23.0142C55.6685 23.1987 55.5747 23.3643 55.4517 23.5107C55.3315 23.6543 55.1851 23.7773 55.0122 23.8799C54.8423 23.9824 54.6504 24.0615 54.4365 24.1172V24.1348C54.5508 24.1992 54.6504 24.271 54.7354 24.3501C54.8203 24.4263 54.9009 24.5054 54.9771 24.5874C55.0532 24.6694 55.1279 24.7632 55.2012 24.8687C55.2773 24.9712 55.3608 25.0913 55.4517 25.229L56.5723 27ZM52.7446 21.5464V23.5942H53.6147C53.7759 23.5942 53.9238 23.5693 54.0586 23.5195C54.1963 23.4697 54.3149 23.3979 54.4146 23.3042C54.5142 23.2104 54.5918 23.0962 54.6475 22.9614C54.7031 22.8267 54.731 22.6758 54.731 22.5088C54.731 22.207 54.6357 21.9712 54.4453 21.8013C54.2549 21.6313 53.981 21.5464 53.6235 21.5464H52.7446Z" fill="black"/>
</svg>
