<svg width="72" height="62" viewBox="0 0 72 62" fill="none" xmlns="http://www.w3.org/2000/svg">
<rect width="62" height="62" fill="#E5E5E5"/>
<path d="M15.3318 35.9209C14.699 36.249 13.9119 36.4131 12.9705 36.4131C11.7517 36.4131 10.7751 36.0283 10.0408 35.2588C9.3064 34.4893 8.93921 33.4795 8.93921 32.2295C8.93921 30.8857 9.35132 29.7998 10.1755 28.9717C11.0037 28.1436 12.0486 27.7295 13.3103 27.7295C14.1228 27.7295 14.7966 27.8447 15.3318 28.0752V29.458C14.7654 29.1221 14.1404 28.9541 13.4568 28.9541C12.5466 28.9541 11.8083 29.2451 11.2419 29.8271C10.6794 30.4092 10.3982 31.1865 10.3982 32.1592C10.3982 33.085 10.6619 33.8232 11.1892 34.374C11.7166 34.9209 12.4099 35.1943 13.2693 35.1943C14.0623 35.1943 14.7498 35.0068 15.3318 34.6318V35.9209ZM25.8279 36.2725H24.2986L23.5427 34.1338H20.238L19.5115 36.2725H17.988L21.1345 27.8701H22.7048L25.8279 36.2725ZM23.1736 32.9971L22.0076 29.6455C21.9724 29.5361 21.9353 29.3604 21.8962 29.1182H21.8728C21.8376 29.3408 21.7986 29.5166 21.7556 29.6455L20.6013 32.9971H23.1736ZM33.5232 29.0537H31.1091V36.2725H29.7146V29.0537H27.3064V27.8701H33.5232V29.0537ZM42.1208 35.9209C41.488 36.249 40.7009 36.4131 39.7595 36.4131C38.5408 36.4131 37.5642 36.0283 36.8298 35.2588C36.0955 34.4893 35.7283 33.4795 35.7283 32.2295C35.7283 30.8857 36.1404 29.7998 36.9646 28.9717C37.7927 28.1436 38.8376 27.7295 40.0994 27.7295C40.9119 27.7295 41.5857 27.8447 42.1208 28.0752V29.458C41.5544 29.1221 40.9294 28.9541 40.2458 28.9541C39.3357 28.9541 38.5974 29.2451 38.031 29.8271C37.4685 30.4092 37.1873 31.1865 37.1873 32.1592C37.1873 33.085 37.4509 33.8232 37.9783 34.374C38.5056 34.9209 39.199 35.1943 40.0583 35.1943C40.8513 35.1943 41.5388 35.0068 42.1208 34.6318V35.9209ZM52.4646 36.2725H51.0642V32.6279H47.1091V36.2725H45.7146V27.8701H47.1091V31.4033H51.0642V27.8701H52.4646V36.2725ZM61.2556 36.2725H56.5388V27.8701H61.0681V29.0537H57.9333V31.4326H60.822V32.6104H57.9333V35.0947H61.2556V36.2725Z" fill="#333333"/>
<path d="M71.2419 36.2725H69.613L68.2712 34.0225C68.1501 33.8154 68.031 33.6396 67.9138 33.4951C67.8005 33.3467 67.6833 33.2256 67.5623 33.1318C67.4451 33.0381 67.3162 32.9697 67.1755 32.9268C67.0349 32.8838 66.8767 32.8623 66.7009 32.8623H66.1384V36.2725H64.7498V27.8701H67.5154C67.9099 27.8701 68.2732 27.917 68.6052 28.0107C68.9373 28.1045 69.2263 28.2471 69.4724 28.4385C69.7185 28.626 69.9099 28.8623 70.0466 29.1475C70.1873 29.4287 70.2576 29.7588 70.2576 30.1377C70.2576 30.4346 70.2126 30.708 70.1228 30.958C70.0369 31.2041 69.9119 31.4248 69.7478 31.6201C69.5876 31.8115 69.3923 31.9756 69.1619 32.1123C68.9353 32.249 68.6794 32.3545 68.3943 32.4287V32.4521C68.5466 32.5381 68.6794 32.6338 68.7927 32.7393C68.906 32.8408 69.0134 32.9463 69.115 33.0557C69.2166 33.165 69.3162 33.29 69.4138 33.4307C69.5154 33.5674 69.6267 33.7275 69.7478 33.9111L71.2419 36.2725ZM66.1384 29.001V31.7314H67.2986C67.5134 31.7314 67.7107 31.6982 67.8904 31.6318C68.074 31.5654 68.2322 31.4697 68.365 31.3447C68.4978 31.2197 68.6013 31.0674 68.6755 30.8877C68.7498 30.708 68.7869 30.5068 68.7869 30.2842C68.7869 29.8818 68.6599 29.5674 68.406 29.3408C68.1521 29.1143 67.7869 29.001 67.3103 29.001H66.1384Z" fill="white"/>
</svg>

