<svg width="0" height="0" class="hidden">
  <symbol viewBox="0 0 35 35"  xmlns="http://www.w3.org/2000/svg" id="search">
    <path d="M25.58 22.995a1.932 1.932 0 0 0-1.367-.567h-.547a.577.577 0 0 1-.4-.162.597.597 0 0 1-.046-.8 12.942 12.942 0 0 0 2.795-8.044c0-7.184-5.823-13.007-13.008-13.007C5.823.415 0 6.238 0 13.423 0 20.607 5.823 26.43 13.007 26.43c3.028 0 5.825-1.042 8.044-2.795a.597.597 0 0 1 .8.046.577.577 0 0 1 .162.4v.547c0 .513.204 1.005.567 1.367l7.946 7.93a2.11 2.11 0 0 0 2.985-2.984l-7.93-7.946zm-12.573-.567a8.993 8.993 0 0 1-9.005-9.006 8.993 8.993 0 0 1 9.005-9.005 8.993 8.993 0 0 1 9.006 9.005 8.993 8.993 0 0 1-9.006 9.006z"
      fill="#4889F1"></path>
  </symbol>
  <symbol viewBox="0 0 30 30"  xmlns="http://www.w3.org/2000/svg" id="skype-r">
    <path d="M14.994 30c-8.34.042-15.183-6.89-14.99-15.352C.184 6.585 6.87-.095 15.193.001c8.22.096 15.008 6.945 14.792 15.406C29.78 23.434 23.16 30.036 14.995 30zM1.827 15.015c.067 7.54 6.163 13.336 13.372 13.228 6.993-.109 12.95-5.802 12.956-13.24 0-7.534-6.144-13.36-13.371-13.239-7.005.115-12.908 5.82-12.957 13.252z"
      ></path>
    <path d="M15.64 20.79c-2.356.126-3.458-.407-4.469-1.372-1.127-1.08-.674-2.31.245-2.373.918-.063 1.47 1.06 1.96 1.374.489.312 2.35 1.022 3.335-.126 1.07-1.248-.712-1.894-2.02-2.09-1.867-.281-4.224-1.31-4.04-3.34.183-2.027 1.69-3.067 3.274-3.214 2.02-.187 3.335.312 4.376 1.217 1.203 1.046.552 2.215-.214 2.31-.764.093-1.621-1.72-3.304-1.748-1.736-.028-2.909 1.841-.766 2.372 2.143.53 4.439.748 5.265 2.746.827 1.997-1.285 4.119-3.642 4.244zm6.642-4.752c.045-.332.07-.67.07-1.014 0-4.128-3.315-7.475-7.406-7.475a7.22 7.22 0 0 0-1.193.1 4.362 4.362 0 0 0-2.414-.728c-2.441 0-4.419 2.007-4.419 4.483 0 .902.261 1.739.712 2.442a7.5 7.5 0 0 0-.092 1.178c0 4.128 3.314 7.474 7.404 7.474.463 0 .912-.046 1.349-.125a4.374 4.374 0 0 0 2.337.675c2.44 0 4.418-2.007 4.418-4.484a4.5 4.5 0 0 0-.766-2.526z"
      ></path>
  </symbol>
  <symbol viewBox="0 0 51 48"  xmlns="http://www.w3.org/2000/svg" id="star">
    <path d="M25.358 39.41a1 1 0 0 1 1.032 0l13.754 8.283c.757.456 1.69-.223 1.49-1.084l-3.65-15.605a1 1 0 0 1 .32-.984l12.147-10.5c.67-.578.312-1.678-.57-1.753l-15.996-1.354a1 1 0 0 1-.836-.605L26.794 1.082c-.345-.812-1.496-.812-1.84 0l-6.256 14.726a1 1 0 0 1-.836.605L1.866 17.767c-.882.075-1.24 1.175-.57 1.753l12.147 10.5a1 1 0 0 1 .32.984l-3.65 15.605c-.2.861.733 1.54 1.49 1.084l13.755-8.283z"
      fill="#4889F1"></path>
  </symbol>
  <symbol viewBox="0 0 31 30"  xmlns="http://www.w3.org/2000/svg" id="telegram-r">
    <path fill-rule="evenodd" clip-rule="evenodd" d="M13.342 18.24l7.388-6.672c.318-.317-.08-.397-.477-.159l-9.055 5.72-3.893-1.192c-.873-.238-.873-.874.16-1.27l15.33-5.879c.715-.318 1.35.159 1.112 1.271l-2.621 12.312c-.159.874-.715 1.113-1.43.715l-3.972-2.939-1.906 1.827c-.238.239-.556.239-.556 0l-.08-3.733z"
      ></path>
    <path d="M15.974 30C7.634 30.042.79 23.11.984 14.648 1.163 6.585 7.85-.095 16.171.001c8.22.096 15.009 6.945 14.792 15.406C30.76 23.434 24.14 30.036 15.974 30zM2.807 15.015c.066 7.54 6.162 13.336 13.371 13.228 6.993-.109 12.95-5.802 12.957-13.24 0-7.534-6.144-13.36-13.372-13.239-7.005.115-12.908 5.82-12.956 13.252z"
      ></path>
  </symbol>
  <symbol viewBox="0 0 30 30"  xmlns="http://www.w3.org/2000/svg" id="twitter-r">
    <path d="M15.164 29.719C7.054 29.754.387 23.004.58 14.76.762 6.914 7.26.422 15.346.51 23.36.592 29.988 7.266 29.77 15.516c-.205 7.816-6.65 14.238-14.607 14.203zm12.832-14.613c-.064-7.348-6.017-13.002-13.043-12.88C8.121 2.345 2.35 7.923 2.367 15.142c.018 7.353 6.018 12.996 13.043 12.867 6.826-.129 12.54-5.695 12.586-12.902z"
      ></path>
    <path d="M7.306 13.887c.508.143 1.002.286 1.5.424.015-.025.03-.055.044-.08-.991-.763-1.529-1.744-1.504-3.001.01-.65.202-1.336.483-1.686 1.924 2.233 4.336 3.495 7.252 3.682.024-.537-.005-1.05.079-1.543.36-2.075 2.742-3.381 4.706-2.612a4.21 4.21 0 0 1 1.253.769c.073.064.226.118.315.089.597-.203 1.184-.424 1.776-.646.084-.03.158-.08.286-.148-.271.833-.774 1.425-1.42 1.942.202-.034.404-.064.601-.108.217-.05.43-.114.642-.183.197-.064.394-.138.646-.231a6.766 6.766 0 0 1-1.524 1.641.515.515 0 0 0-.232.468c.024 2.736-.903 5.117-2.723 7.138-1.421 1.577-3.202 2.558-5.293 2.962-1.584.306-3.153.276-4.716-.133a10.034 10.034 0 0 1-2.704-1.163c-.024-.015-.044-.04-.093-.084 1.919.163 3.625-.3 5.19-1.474-1.634-.158-2.714-.966-3.32-2.49h1.494l.015-.078c-1.016-.276-1.8-.858-2.314-1.78a3.39 3.39 0 0 1-.439-1.675z"
      ></path>
  </symbol>
  <symbol viewBox="0 0 36 35"  xmlns="http://www.w3.org/2000/svg" id="wordpress">
    <path d="M18.265 35C8.67 35 .833 27.132.833 17.5S8.671 0 18.4 0c9.594 0 17.567 8.004 17.432 17.771C35.562 27.403 27.859 35 18.265 35zm10.54-29.031C22.048-.543 10.292.814 5.293 8.953h.675c1.487 0 2.838-.135 4.324-.135.54 0 .811.135.811.678 0 .407-.27.543-.676.678-.54 0-1.08.136-1.756.136a2421.22 2421.22 0 0 0 5.675 16.822c1.216-3.392 2.297-6.648 3.378-9.903v-.543c-.675-2.035-1.486-4.07-2.162-6.105-.135-.27-.27-.27-.54-.407-.406 0-.946-.135-1.351-.135-.406 0-.541-.272-.541-.679 0-.407.135-.542.54-.678h.406c1.756 0 3.513.136 5.27.136.946 0 1.892-.136 2.702-.136.406 0 .676.271.811.543 0 .407-.135.678-.54.678h-.54c-.406 0-.812.136-1.217.136 1.892 5.562 3.784 11.124 5.54 16.686.946-2.578 1.757-5.29 2.433-7.868.405-1.221.405-2.578.135-3.799-.27-1.22-.811-2.17-1.352-3.256-.405-.814-.81-1.492-1.216-2.306-.54-1.628.676-3.527 2.703-3.527zm-10.27 13.159a539.478 539.478 0 0 0-4.73 13.566c2.838.95 7.838.814 9.595-.272a1432.57 1432.57 0 0 0-4.865-13.294zm-7.162 12.616C8.941 24.826 6.51 18.043 3.941 11.26c-3.243 7.054-.54 16.55 7.432 20.484zm14.73-.678c8.512-5.02 9.458-15.058 5.945-20.756v.407c.135 1.764-.135 3.663-.676 5.29-1.216 3.528-2.432 7.19-3.648 10.718-.54 1.492-1.081 2.849-1.622 4.34z"
      fill="#4889F1"></path>
  </symbol>
  <symbol viewBox="0 0 49 35"  xmlns="http://www.w3.org/2000/svg" id="youtube">
    <path fill-rule="evenodd" clip-rule="evenodd" d="M43.416.981c2.058.655 3.8 2.29 4.276 4.58 1.108 3.761.95 11.939.95 11.939s0 8.178-.95 12.103c-.634 2.126-2.218 3.761-4.276 4.416C39.616 35 24.57 35 24.57 35s-15.044 0-18.845-.981c-2.059-.491-3.642-2.29-4.276-4.416C.5 25.678.5 17.5.5 17.5s0-8.178.95-11.94C2.084 3.272 3.667 1.637 5.726.982 9.526 0 24.57 0 24.57 0s15.202 0 18.845.981zm-23.754 9.16v14.883L32.33 17.5l-12.67-7.36z"
      fill="#4889F1"></path>
  </symbol>
  <symbol viewBox="0 0 31 30"  xmlns="http://www.w3.org/2000/svg" id="cat-r">
    <path d="M15.984 30C7.644 30.042.801 23.11.994 14.648 1.174 6.585 7.86-.095 16.183.001c8.22.096 15.008 6.945 14.791 15.406C30.77 23.434 24.15 30.036 15.984 30zM2.817 15.015c.066 7.54 6.162 13.336 13.372 13.228 6.992-.109 12.95-5.802 12.956-13.24 0-7.534-6.144-13.36-13.371-13.239-7.005.115-12.909 5.82-12.957 13.252z"
      ></path>
    <path d="M18.375 23.47h-4.543s.006-1.348 0-2.271c-3.11.67-3.979-1.703-3.979-1.703-.568-1.136-1.137-1.703-1.137-1.703-1.136-.674 0-.568 0-.568 1.137 0 1.705 1.136 1.705 1.136.998 1.692 2.772 1.42 3.41 1.136 0-.568.249-1.426.568-1.703-2.483-.28-4.549-1.703-4.549-4.542 0-2.839.571-3.406 1.14-3.974-.115-.28-.592-1.315.016-2.84 0 0 1.117 0 2.254 1.704.563-.563 2.273-.567 2.842-.567.567 0 2.277.004 2.84.567C20.08 6.439 21.2 6.439 21.2 6.439c.608 1.524.132 2.559.017 2.839.568.567 1.137 1.135 1.137 3.974 0 2.839-2.063 4.262-4.546 4.542.32.277.568 1.253.568 1.703v3.972z"
      ></path>
  </symbol>
  <symbol viewBox="0 0 24 17" xmlns="http://www.w3.org/2000/svg" id="envelope">
    <path fill-rule="evenodd" clip-rule="evenodd" d="M22.364.099H1.636C.733.099 0 .759 0 1.575V15.35c0 .815.733 1.476 1.636 1.476h20.728c.903 0 1.636-.66 1.636-1.476V1.575c0-.816-.733-1.476-1.636-1.476zm.036 14.215l-4.346-3.962a.88.88 0 0 0-1.14.019.702.702 0 0 0-.02 1.039l4.346 3.961H2.76l4.347-3.961a.702.702 0 0 0-.02-1.04.88.88 0 0 0-1.14-.018L1.6 14.314V4.71l9.853 6.77c.292.2.693.2.985 0l9.951-6.775.011 9.609zm0-12.76v1.385L11.962 9.796 1.6 2.939V1.553h20.8z"
      ></path>
  </symbol>
  <symbol viewBox="0 0 17 35"  xmlns="http://www.w3.org/2000/svg" id="facebook">
    <path d="M4.27 35h7.073V17.317h4.878l.488-5.854H11.22V8.05c0-1.342.244-1.951 1.585-1.951h3.78V0H11.71C6.465 0 4.148 2.317 4.148 6.707v4.756H.489v5.976h3.659V35h.122z" fill="#4889F1"></path>
  </symbol>
  <symbol viewBox="0 0 30 30"  xmlns="http://www.w3.org/2000/svg" id="facebook-r">
    <path d="M15.164 29.719C7.054 29.754.387 23.004.58 14.76.762 6.908 7.266.422 15.351.51c8.01.088 14.637 6.756 14.42 15.012-.205 7.816-6.656 14.238-14.607 14.197zM2.355 15.135c.065 7.342 6.018 12.996 13.05 12.873 6.808-.123 12.58-5.672 12.58-12.89 0-7.342-6-13.02-13.055-12.885-6.809.123-12.528 5.69-12.575 12.902z"
      ></path>
    <path d="M12.545 23.955v-8.893h-1.94v-2.997c.086-.005.172-.015.262-.015.469 0 .942-.01 1.41.005.207.005.278-.05.273-.262-.01-.767-.01-1.529-.005-2.296.005-.862.247-1.644.861-2.27a3.287 3.287 0 0 1 2.181-.983c1.33-.076 2.665-.066 4-.091.015 0 .03.015.06.03V9.26c-.095.005-.186.01-.272.01h-1.813c-.61.005-.967.369-.967.969 0 .57 0 1.145.005 1.715 0 .015.01.03.025.086h3.063c-.131 1.024-.252 2.003-.383 3.016h-2.72v8.91c-1.355-.01-2.675-.01-4.04-.01z"
      ></path>
  </symbol>
  <symbol viewBox="0 0 34 35"  xmlns="http://www.w3.org/2000/svg" id="google">
    <path d="M33.86 16.48H17.602v4.588H28.61c-1.355 5.607-5.25 9.175-10.668 9.175-7.112 0-12.7-5.777-12.7-12.743s5.757-12.743 12.7-12.743c3.386 0 6.434 1.36 8.636 3.398l3.556-3.058C26.917 2.04 22.684 0 17.942 0 8.29 0 .5 7.816.5 17.5.5 27.184 8.29 35 17.942 35c9.313 0 15.917-7.136 15.917-16.82v-1.7z"
      fill="#4889F1"></path>
  </symbol>
  <symbol viewBox="0 0 30 30"  xmlns="http://www.w3.org/2000/svg" id="google-r">
    <path d="M15.17 29.719C7.055 29.759.393 23.009.58 14.772.756 6.92 7.266.416 15.375.51c8.004.094 14.613 6.762 14.402 15-.205 7.816-6.65 14.244-14.607 14.209zm12.826-14.567c-.03-7.107-5.62-12.761-12.498-12.92C8.273 2.07 2.402 7.788 2.368 15.095c-.036 7.101 5.607 12.726 12.468 12.908 7.072.194 13.078-5.467 13.16-12.85z"
      ></path>
    <path d="M22.71 13.581c.23.762.225 1.538.166 2.305-.098 1.328-.446 2.592-1.15 3.74-1.264 2.055-3.114 3.242-5.49 3.593-2.398.357-4.567-.23-6.452-1.753-1.675-1.352-2.659-3.115-2.962-5.244-.51-3.593 1.346-7.109 4.66-8.603 3.115-1.4 6.062-.996 8.775 1.094.063.049.122.107.171.151-.798.796-1.596 1.582-2.38 2.364-.362-.2-.734-.454-1.14-.63-2.992-1.304-6.444.732-6.752 3.97-.24 2.494 1.302 4.701 3.76 5.253 1.586.356 3.085.102 4.363-.986.621-.528.984-1.221 1.16-2.056h-4.411v-3.188c2.55-.01 5.106-.01 7.681-.01z"
      ></path>
  </symbol>
  <symbol viewBox="0 0 30 30"  xmlns="http://www.w3.org/2000/svg" id="in-r">
    <path d="M15.176 29.719C7.055 29.759.393 23.009.58 14.772.756 6.92 7.266.416 15.37.51c8.003.094 14.612 6.762 14.401 15-.199 7.816-6.644 14.244-14.595 14.209zm-12.82-14.59c.064 7.342 6 12.984 13.019 12.879 6.808-.105 12.61-5.648 12.615-12.89 0-7.337-5.982-13.008-13.02-12.891-6.82.111-12.568 5.666-12.615 12.902z"
      ></path>
    <path d="M19.137 22.008v-.358c0-1.564.006-3.123-.006-4.687 0-.27-.024-.551-.088-.809-.211-.867-.914-1.3-1.928-1.219-.75.06-1.424.727-1.476 1.5-.035.47-.024.938-.03 1.407-.005 1.271 0 2.537 0 3.808v.364h-2.818V12.85h2.795v1.16c.1-.117.158-.176.2-.246 1.265-1.899 4.698-1.694 5.718.545.281.62.451 1.271.457 1.95.018 1.881.012 3.768.012 5.655a.41.41 0 0 1-.018.105c-.926-.011-1.857-.011-2.818-.011zm-8.151.012H8.191v-9.117h2.795v9.117zM9.504 11.074c-.838-.006-1.424-.615-1.418-1.459.006-.844.615-1.424 1.488-1.418.832.006 1.436.621 1.424 1.46 0 .831-.627 1.423-1.494 1.417z"
     ></path>
  </symbol>
  <symbol viewBox="0 0 35 30"  xmlns="http://www.w3.org/2000/svg" id="list">
    <path d="M21.667 27.415c0-1.15-.933-2.083-2.084-2.083H2.917a2.083 2.083 0 0 0 0 4.166h16.666c1.15 0 2.084-.932 2.084-2.083zm12.5-16.667c0-1.15-.933-2.083-2.084-2.083H2.917a2.083 2.083 0 0 0 0 4.167h29.166c1.15 0 2.084-.933 2.084-2.084zM.833 19.082c0 1.15.933 2.083 2.084 2.083h29.166a2.083 2.083 0 1 0 0-4.167H2.917a2.084 2.084 0 0 0-2.084 2.084zM2.917.332a2.083 2.083 0 0 0 0 4.166h29.166a2.083 2.083 0 0 0 0-4.166H2.917z"
      fill="#4889F1"></path>
  </symbol>
  <symbol viewBox="0 0 43 34"  xmlns="http://www.w3.org/2000/svg" id="list-rounded">
    <path d="M.5 30.748a3 3 0 0 0 3 3h35.667a3 3 0 0 0 3-3v-2.333a3 3 0 0 0-3-3H3.5a3 3 0 0 0-3 3v2.333zm4.167-1.166a2.083 2.083 0 1 1 4.166 0 2.083 2.083 0 0 1-4.166 0zM3.5.415a3 3 0 0 0-3 3v2.333a3 3 0 0 0 3 3h35.667a3 3 0 0 0 3-3V3.415a3 3 0 0 0-3-3H3.5zm5.333 4.167a2.083 2.083 0 1 1-4.166 0 2.083 2.083 0 0 1 4.166 0zM.5 18.248a3 3 0 0 0 3 3h35.667a3 3 0 0 0 3-3v-2.333a3 3 0 0 0-3-3H3.5a3 3 0 0 0-3 3v2.333zm4.167-1.166a2.083 2.083 0 1 1 4.166 0 2.083 2.083 0 0 1-4.166 0z"
      fill="#4889F1"></path>
  </symbol>
  <symbol viewBox="0 0 24 24" xmlns="http://www.w3.org/2000/svg" id="phone">
    <path d="M15.007 15.304l-.008.008a80.53 80.53 0 0 1-1.701 1.868c-2.825-1.577-4.894-3.646-6.43-6.426a36.286 36.286 0 0 1 1.8-1.588l.016-.014.015-.014c.35-.317.616-.693.741-1.157.123-.453.092-.917-.024-1.385-.24-1.108-.43-2.2-.524-3.285v-.006c-.053-.554-.183-1.137-.618-1.549-.443-.42-1.036-.506-1.603-.506H3.496c-.607.026-1.264.125-1.721.582-.474.473-.546 1.135-.52 1.766.102 3.762 1.122 7.242 3.222 10.366l.003.004c3.819 5.601 9.195 8.57 15.963 8.875h.001c.617.027 1.26-.048 1.727-.48.476-.44.579-1.069.579-1.644v-3.561l-.002-.024c-.031-.508-.184-.995-.564-1.363-.368-.357-.848-.503-1.32-.562h-.003a42.418 42.418 0 0 1-3.565-.578c-.39-.09-.8-.119-1.21-.012-.423.111-.778.35-1.08.685z"
       stroke-width="1.5" stroke-miterlimit="10"></path>
  </symbol>
</svg>